<svg id="email_1" data-name="email 1" xmlns="http://www.w3.org/2000/svg" width="20" height="20" viewBox="0 0 20 20">
  <path id="email_1_Background_Mask_" data-name="email 1 (Background/Mask)" d="M0,0H20V20H0Z" fill="none"/>
  <path id="Vector" d="M16.261,2.949A4.158,4.158,0,0,0,12.3,0H3.964A4.158,4.158,0,0,0,0,2.949L8.131,7.384Z" transform="translate(1.869 2.5)" fill="#656bba"/>
  <path id="Vector-2" data-name="Vector" d="M8.333,4.429a.834.834,0,0,1-.4-.1L0,0V6.1a4.172,4.172,0,0,0,4.167,4.167H12.5A4.172,4.172,0,0,0,16.667,6.1V0L8.733,4.328A.834.834,0,0,1,8.333,4.429Z" transform="translate(1.667 7.237)" fill="#656bba"/>
</svg>
