<svg xmlns="http://www.w3.org/2000/svg" width="36.515" height="32.863" viewBox="0 0 36.515 32.863">
  <g id="Group_1" data-name="Group 1" transform="translate(-1661 -520.568)">
    <path id="Fill_1" data-name="Fill 1" d="M.278.858A1.826,1.826,0,0,1,2.794.278L16.432,8.8l6.335-3.96a1.826,1.826,0,1,1,1.935,3.1L17.4,12.5a1.826,1.826,0,0,1-1.935,0L.858,3.374A1.826,1.826,0,0,1,.278.858Z" transform="translate(1662.826 529.697)" fill="#fff"/>
    <path id="Fill_2" data-name="Fill 2" d="M5.477,3.652A1.826,1.826,0,0,0,3.652,5.477V20.083a1.826,1.826,0,0,0,1.826,1.826H31.038a1.826,1.826,0,0,0,1.826-1.826V9.129a1.826,1.826,0,0,1,3.652,0V20.083a5.477,5.477,0,0,1-5.477,5.477H5.477A5.477,5.477,0,0,1,0,20.083V5.477A5.477,5.477,0,0,1,5.477,0H20.083a1.826,1.826,0,0,1,0,3.652Z" transform="translate(1661 527.871)" fill="#fff"/>
    <path id="Fill_3" data-name="Fill 3" d="M10.955,3.652H0V0H10.955Z" transform="translate(1684.735 524.22)" fill="#fff"/>
    <path id="Fill_4" data-name="Fill 4" d="M0,10.955V0H3.652V10.955Z" transform="translate(1688.387 520.568)" fill="#fff"/>
  </g>
</svg>
